# xmcd
#
# Track frame offsets:
# 150
# 13006
# 24273
# 40244
# 53785
# 65310
# 83291
# 94903
# 109050
# 120846
#
# Disc length: 1754 seconds
#
#
# Revision: 0
# Processed by: cddbd v1.4PL0 Copyright (c) Steve Scherf et al.
# Submitted via: FreeRIP 2.00 
#
DISCID=6906d80a
DTITLE=Waylon Jennings - Cedartown, Georgia
DYEAR=1971
DGENRE=Country
TTITLE0=Cedartown, Georgia
TTITLE1=Big D
TTITLE2=House Song
TTITLE3=Tomorrow Night In Baltimore
TTITLE4=Pickin' White Gold
TTITLE5=Bridge Over Troubled Water
TTITLE6=It's All Over Now
TTITLE7=I'm Gonna Leave (While I Still Love You)
TTITLE8=I've Got Eyes For You
TTITLE9=Let Me Stay Awile
EXTD=RCA Victor\nLSP 4567
EXTT0=
EXTT1=
EXTT2=
EXTT3=
EXTT4=
EXTT5=
EXTT6=
EXTT7=
EXTT8=
EXTT9=
PLAYORDER=
